<?xml version="1.0" encoding="UTF-8"?>
<svg width="66px" height="56px" viewBox="0 0 66 56" version="1.1" xmlns="http://www.w3.org/2000/svg" xmlns:xlink="http://www.w3.org/1999/xlink">
    <!-- Generator: Sketch 59.1 (86144) - https://sketch.com -->
    <title>bp4-logo-white</title>
    <desc>Created with Sketch.</desc>
    <defs>
        <path d="M23.836,1.77635684e-15 C12.746,1.77635684e-15 2.48689958e-14,11.269 2.48689958e-14,27.333 C2.48689958e-14,40.517 12.932,45.553 27.115,45.553 C41.3,45.553 56.248,40.364 56.248,27.182 C56.248,13.999 38.02,1.77635684e-15 23.836,1.77635684e-15" id="path-1"></path>
        <filter x="-15.1%" y="-14.3%" width="130.2%" height="137.3%" filterUnits="objectBoundingBox" id="filter-2">
            <feOffset dx="0" dy="2" in="SourceAlpha" result="shadowOffsetOuter1"></feOffset>
            <feGaussianBlur stdDeviation="2.5" in="shadowOffsetOuter1" result="shadowBlurOuter1"></feGaussianBlur>
            <feColorMatrix values="0 0 0 0 0   0 0 0 0 0   0 0 0 0 0  0 0 0 0.141553759 0" type="matrix" in="shadowBlurOuter1"></feColorMatrix>
        </filter>
    </defs>
    <g id="Page-1" stroke="none" stroke-width="1" fill="none" fill-rule="evenodd">
        <g id="bp4-logo-white" transform="translate(5.000000, 3.000000)" fill-rule="nonzero">
            <g id="Fill-1">
                <use fill="black" fill-opacity="1" filter="url(#filter-2)" xlink:href="#path-1"></use>
                <use fill="#FF9800" xlink:href="#path-1"></use>
            </g>
            <path d="M46.2969,28.916 L46.2969,31.605 L46.2969,32.016 C46.2969,32.391 46.2189,32.709 45.9569,32.97 C45.6969,33.23 45.4329,33.361 45.0569,33.361 C44.6949,33.361 44.3989,33.233 44.1379,32.979 C43.8769,32.725 43.7539,32.418 43.7539,32.057 L43.7539,31.645 L38.7609,31.645 C37.8109,31.645 36.9999,31.29 36.3309,30.621 C35.9329,30.223 35.6549,29.767 35.4939,29.263 C35.2359,29.662 34.9359,30.038 34.5909,30.382 C33.3219,31.651 31.6339,32.35 29.8399,32.35 C28.7339,32.35 27.6689,32.086 26.7179,31.585 C26.7119,31.581 26.6909,31.57 26.6909,31.57 C26.6069,31.529 26.5129,31.507 26.4129,31.507 C26.0659,31.507 25.7829,31.787 25.7809,32.134 L25.7799,32.134 L25.7799,36.157 C25.7799,36.901 25.1779,37.504 24.4339,37.504 C23.6909,37.504 23.0879,36.901 23.0879,36.157 L23.0879,28.674 C22.7709,29.297 22.3549,29.873 21.8459,30.382 C20.5759,31.651 18.8889,32.351 17.0939,32.351 C15.9329,32.351 14.8179,32.058 13.8299,31.507 C13.8079,31.493 13.7569,31.467 13.7569,31.467 C13.6669,31.424 13.5649,31.399 13.4569,31.398 L13.4479,31.399 C13.1909,31.402 12.9669,31.54 12.8429,31.744 C12.6029,32.115 12.1789,32.35 11.7039,32.35 C10.9609,32.35 10.3419,31.757 10.3419,31.014 L10.3419,15.103 C10.3419,14.358 10.9439,13.756 11.6889,13.756 C12.4329,13.756 13.0359,14.358 13.0359,15.103 L13.0359,19.126 C13.0379,19.473 13.3199,19.753 13.6679,19.753 C13.7679,19.753 13.8609,19.729 13.9439,19.689 C13.9439,19.689 13.9669,19.679 13.9729,19.675 C14.9239,19.176 15.9879,18.909 17.0939,18.909 C18.8889,18.909 20.5759,19.608 21.8459,20.878 C22.3549,21.387 22.7709,21.964 23.0879,22.587 L23.0879,20.247 C23.0879,19.503 23.7059,18.908 24.4499,18.908 C24.9239,18.908 25.3479,19.145 25.5879,19.516 C25.7119,19.721 25.9369,19.858 26.1929,19.861 L26.2019,19.861 C26.3099,19.861 26.4119,19.836 26.5029,19.792 C26.5029,19.792 26.5529,19.767 26.5749,19.753 C27.5619,19.203 28.6779,18.909 29.8399,18.909 C31.6339,18.909 33.3219,19.608 34.5909,20.878 C35.7789,22.065 36.4669,23.62 36.5509,25.285 L39.9999,19.902 C40.5219,19.1 41.2189,18.578 42.1009,18.337 C42.9839,18.096 43.8289,18.203 44.6589,18.658 C45.1939,18.966 45.5939,19.395 45.9009,19.942 C46.2089,20.491 46.2969,21.074 46.2969,21.689 L46.2969,28.916 Z" id="Fill-4" fill="#FFFFFF"></path>
            <path d="M29.8399,22.1592 C27.9239,22.1592 26.3669,23.7162 26.3669,25.6302 C26.3669,27.5442 27.9239,29.1012 29.8399,29.1012 C31.7539,29.1012 33.3119,27.5442 33.3119,25.6302 C33.3119,23.7162 31.7539,22.1592 29.8399,22.1592" id="Fill-6" fill="#FF9800"></path>
            <path d="M43.3643,21.0127 C42.9493,20.8117 42.5683,20.9387 42.2733,21.3797 L38.1773,27.7747 C38.1373,27.8387 38.0733,27.9877 38.0693,28.0027 C38.0373,28.0907 38.0173,28.1847 38.0173,28.2837 C38.0173,28.7297 38.3763,29.0927 38.8223,29.1007 C38.8233,29.1007 38.8233,29.1027 38.8233,29.1027 L43.7543,29.1027 L43.7543,21.6287 C43.7543,21.3217 43.6063,21.1187 43.3643,21.0127" id="Fill-8" fill="#FF9800"></path>
            <path d="M17.0938,22.1592 C15.1788,22.1592 13.6218,23.7162 13.6218,25.6302 C13.6218,27.5442 15.1788,29.1022 17.0938,29.1022 C19.0088,29.1022 20.5658,27.5442 20.5658,25.6302 C20.5658,23.7162 19.0088,22.1592 17.0938,22.1592" id="Fill-10" fill="#FF9800"></path>
        </g>
    </g>
</svg>