<svg id="Capa_2" data-name="Capa 2" xmlns="http://www.w3.org/2000/svg" xmlns:xlink="http://www.w3.org/1999/xlink" viewBox="0 0 557.12 295.2"><defs><style>.cls-1{fill:url(#Degradado_sin_nombre_40);}.cls-2{fill:#fff;}</style><linearGradient id="Degradado_sin_nombre_40" x1="47.39" y1="263.42" x2="690.12" y2="-55.31" gradientUnits="userSpaceOnUse"><stop offset="0" stop-color="#00a099"/><stop offset="1" stop-color="#063"/></linearGradient></defs><path class="cls-1" d="M529,280.21s-40.81,15-248,15c-187,0-248-15-248-15-11.48-3.32-19.33-9.66-21.53-21.54,0,0-9-39.93-9-111.07,0-64.08,9-111.07,9-111.07C13.42,24.4,22,18,33,15,33,15,94.86,0,281,0S529,15,529,15c11.11,2,18.61,9.55,21.53,21.53,0,0,9,46.12,9,111.07,0,68.51-9,111.07-9,111.07C547.64,271,540.62,276.82,529,280.21Z" transform="translate(-2.44)"/><path class="cls-2" d="M90.87,197.48H73.52l-8.83-40H56.94v40h-17V97.73H65.62q11,0,18,6,7.76,6.56,7.75,18.53v10.68q0,12.12-7.75,18.67a15.44,15.44,0,0,1-2.47,1.85ZM74.29,122.24c0-3.33-.77-5.7-2.32-7.13-1.35-1.14-3.46-1.71-6.35-1.71H56.94v28.36h8.68c2.89,0,5-.57,6.35-1.71q2.32-2,2.32-7.13Z" transform="translate(-2.44)"/><path class="cls-2" d="M118.44,113.4v25.08h19.2v15.68h-19.2V181.8h27.88v15.68H101.4V97.73h44.92V113.4Z" transform="translate(-2.44)"/><path class="cls-2" d="M180.09,198.62q-11.16,0-18-5.85-7.76-6.84-7.75-18.66v-13h17v13c0,3.42.78,5.79,2.32,7.12,1.35,1.14,3.46,1.71,6.36,1.71s5.11-.57,6.35-1.71c1.55-1.23,2.32-3.61,2.32-7.12v-6.27q0-6.56-5.73-11.4a51,51,0,0,0-6.51-3.71,61,61,0,0,1-10.69-6.27,32.2,32.2,0,0,1-8.52-10.4,27.51,27.51,0,0,1-2.94-12.54V121.1q0-11.84,7.75-18.67,6.81-5.85,18-5.84t18,5.84q7.75,6.84,7.75,18.67v8.69h-17V121.1c0-3.52-.77-5.89-2.32-7.13q-1.86-1.71-6.35-1.71c-2.9,0-5,.57-6.36,1.71-1.54,1.33-2.32,3.71-2.32,7.13v2.42q0,6.55,5.73,11.26a50.16,50.16,0,0,0,6,3.42q8.06,4,11.16,6.55,11.46,9.41,11.46,23.09v6.27q0,11.82-7.75,18.66Q191.24,198.62,180.09,198.62Z" transform="translate(-2.44)"/><path class="cls-2" d="M240.34,198.62q-11.15,0-18-5.85-7.74-6.84-7.74-18.66v-53q0-11.84,7.74-18.67,6.82-5.85,18-5.84t18,5.84q7.74,6.84,7.74,18.67v53q0,11.82-7.74,18.66Q251.49,198.62,240.34,198.62Zm0-86.36q-4.34,0-6.35,1.71-2.33,2-2.32,7.13v53q0,5.13,2.32,7.12,2,1.71,6.35,1.71t6.35-1.71c1.55-1.23,2.33-3.61,2.33-7.12v-53c0-3.52-.78-5.89-2.33-7.13Q244.83,112.26,240.34,112.26Z" transform="translate(-2.44)"/><path class="cls-2" d="M322,197.48H277.05V97.73h17V181.8H322Z" transform="translate(-2.44)"/><path class="cls-2" d="M362.56,97.73h17.35l-21.69,99.75h-17L319.49,97.73h17.35l12.86,67.4Z" transform="translate(-2.44)"/><path class="cls-2" d="M404.84,113.4v25.08h19.21v15.68H404.84V181.8h27.89v15.68H387.8V97.73h44.93V113.4Z" transform="translate(-2.44)"/><path class="cls-2" d="M494.22,197.48H476.87l-8.83-40H460.3v40h-17V97.73H469q11,0,18,6,7.74,6.56,7.75,18.53v10.68q0,12.12-7.75,18.67a15.54,15.54,0,0,1-2.48,1.85Zm-16.57-75.24c0-3.33-.78-5.7-2.33-7.13q-2-1.71-6.35-1.71H460.3v28.36H469q4.33,0,6.35-1.71,2.32-2,2.33-7.13Z" transform="translate(-2.44)"/><path class="cls-2" d="M522.1,189.5a7.41,7.41,0,0,1-2.55,5.63,9.14,9.14,0,0,1-12.24,0,7.47,7.47,0,0,1,0-11.26,9.14,9.14,0,0,1,12.24,0A7.39,7.39,0,0,1,522.1,189.5Zm-2.48-15H507.08l-2.17-26.79v-50h17v50Z" transform="translate(-2.44)"/></svg>